<svg xmlns="http://www.w3.org/2000/svg" viewBox="0 0 64 64" width="64" height="64">
  <!-- AI Study Wizard — cute wizard hat, matches the 🧙 brand and #863bff palette -->
  <defs>
    <linearGradient id="hat" x1="0" y1="0" x2="0" y2="1">
      <stop offset="0" stop-color="#a06bff"/>
      <stop offset="1" stop-color="#7e14ff"/>
    </linearGradient>
  </defs>
  <!-- sparkles -->
  <g fill="#47bfff">
    <path d="M50 12l1.4 3.6L55 17l-3.6 1.4L50 22l-1.4-3.6L45 17l3.6-1.4z"/>
    <path d="M13 30l1 2.6L16.6 34 14 35l-1 2.6L12 35l-2.6-1L12 32.6z"/>
  </g>
  <!-- hat brim -->
  <ellipse cx="32" cy="50" rx="22" ry="6" fill="#5e0fd0"/>
  <!-- cone -->
  <path d="M32 8C30 8 16 44 16 48c0 2 7 4 16 4s16-2 16-4C48 44 34 8 32 8z" fill="url(#hat)"/>
  <!-- band -->
  <path d="M22 38c6 3 14 3 20 0l-1.6 6c-5.5 2.4-11.3 2.4-16.8 0z" fill="#ede6ff" opacity="0.9"/>
  <!-- star buckle -->
  <path d="M32 36l1.8 3.7 4 .6-2.9 2.8.7 4-3.6-1.9-3.6 1.9.7-4-2.9-2.8 4-.6z" fill="#ffd84d"/>
</svg>
